<svg data-v-fde0c5aa="" xmlns="http://www.w3.org/2000/svg" viewBox="0 0 300 300" class="iconLeft"><!----><defs data-v-fde0c5aa=""><!----></defs><rect data-v-fde0c5aa="" fill="#9D816E" x="0" y="0" width="300px" height="300px" class="logo-background-square"></rect><defs data-v-fde0c5aa=""><!----></defs><g data-v-fde0c5aa="" id="e354f521-2679-45e6-9a27-75f32d695d45" fill="#ffffff" transform="matrix(8.621456556857463,0,0,8.621456556857463,169.47470255584463,67.06158685416318)"><path d="M2.19 11.75L2.84 3.66L3.72 3.66L3.94 15.47L3.06 15.47L3.06 7.38L2.41 14.81L1.97 14.81L1.31 7.38L1.31 15.47L0.44 15.47L0.66 3.66L1.53 3.66L2.19 11.75ZM6.34 14.38L6.34 12.59Q6.34 11.87 6.27 11.35Q6.19 10.83 6.07 10.44Q5.95 10.06 5.79 9.77Q5.63 9.48 5.47 9.23Q5.30 8.98 5.15 8.72Q4.99 8.47 4.87 8.15Q4.74 7.83 4.67 7.41Q4.59 6.99 4.59 6.40L4.59 6.40L4.59 4.75Q4.59 4.59 4.65 4.38Q4.70 4.17 4.84 3.99Q4.98 3.81 5.24 3.68Q5.50 3.55 5.91 3.55L5.91 3.55Q6.32 3.55 6.57 3.68Q6.83 3.81 6.97 3.99Q7.12 4.17 7.17 4.38Q7.22 4.59 7.22 4.75L7.22 4.75L7.22 7.81L6.34 7.81L6.34 4.75Q6.34 4.59 6.31 4.48Q6.27 4.38 6.21 4.32Q6.15 4.26 6.07 4.23Q5.99 4.21 5.91 4.21L5.91 4.21Q5.82 4.21 5.75 4.23Q5.67 4.26 5.61 4.32Q5.54 4.38 5.51 4.48Q5.47 4.59 5.47 4.75L5.47 4.75L5.47 6.08Q5.47 6.86 5.60 7.38Q5.73 7.90 5.92 8.28Q6.12 8.67 6.34 8.98Q6.57 9.30 6.76 9.66Q6.96 10.03 7.09 10.51Q7.22 10.99 7.22 11.71L7.22 11.71L7.22 14.38Q7.22 14.46 7.20 14.67Q7.18 14.89 7.05 15.11Q6.93 15.34 6.67 15.51Q6.40 15.69 5.91 15.69L5.91 15.69Q5.41 15.69 5.15 15.51Q4.88 15.34 4.76 15.11Q4.63 14.89 4.61 14.67Q4.59 14.46 4.59 14.38L4.59 14.38L4.59 10.44L5.47 10.44L5.47 14.38Q5.47 14.46 5.48 14.57Q5.48 14.68 5.52 14.79Q5.56 14.89 5.65 14.96Q5.74 15.03 5.91 15.03L5.91 15.03Q6.07 15.03 6.16 14.96Q6.25 14.89 6.29 14.79Q6.33 14.68 6.34 14.57Q6.34 14.46 6.34 14.38L6.34 14.38ZM10.50 4.75L10.50 8.47L9.63 8.47L9.63 4.75Q9.63 4.67 9.62 4.57Q9.61 4.48 9.57 4.40Q9.53 4.32 9.44 4.27Q9.35 4.21 9.19 4.21L9.19 4.21Q9.02 4.21 8.93 4.27Q8.85 4.32 8.80 4.40Q8.76 4.48 8.76 4.57Q8.75 4.67 8.75 4.75L8.75 4.75L8.75 14.38Q8.75 14.46 8.76 14.57Q8.76 14.68 8.80 14.79Q8.85 14.89 8.93 14.96Q9.02 15.03 9.19 15.03L9.19 15.03Q9.35 15.03 9.44 14.96Q9.53 14.89 9.57 14.79Q9.61 14.68 9.62 14.57Q9.63 14.46 9.63 14.38L9.63 14.38L9.63 10.00L9.41 10.00L9.41 9.34L10.50 9.34L10.50 14.38Q10.50 14.46 10.48 14.67Q10.46 14.89 10.34 15.11Q10.21 15.34 9.95 15.51Q9.68 15.69 9.19 15.69L9.19 15.69Q8.70 15.69 8.43 15.51Q8.16 15.34 8.04 15.11Q7.92 14.89 7.90 14.67Q7.88 14.46 7.88 14.38L7.88 14.38L7.88 4.75Q7.88 4.70 7.88 4.59Q7.89 4.48 7.92 4.34Q7.96 4.21 8.04 4.07Q8.12 3.93 8.26 3.81Q8.41 3.70 8.63 3.63Q8.86 3.55 9.19 3.55L9.19 3.55Q9.52 3.55 9.74 3.63Q9.97 3.70 10.11 3.81Q10.25 3.93 10.34 4.07Q10.42 4.21 10.45 4.34Q10.49 4.48 10.49 4.59Q10.50 4.70 10.50 4.75L10.50 4.75Z"></path></g><defs data-v-fde0c5aa=""><!----></defs><g data-v-fde0c5aa="" id="3ff643fe-a50d-4921-af77-7ecdcac8697b" stroke="none" fill="#4F5254" transform="matrix(1.5736338772299803,0,0,1.5736338772299803,24.644481538436253,71.13183186964505)"><path d="M86.183 46.923V33.71l-.001-.004c0-.117-.009-.233-.024-.349l-.011-.064a2.677 2.677 0 00-.062-.293l-.015-.051a2.374 2.374 0 00-.117-.317c-.009-.022-.02-.042-.031-.064-.023-.051-.046-.103-.074-.153-.016-.028-.034-.053-.052-.081a2.838 2.838 0 00-.226-.323l-.021-.026a2.846 2.846 0 00-.292-.291 2.354 2.354 0 00-.222-.173l-.058-.04a2.41 2.41 0 00-.288-.165c-.009-.004-.015-.01-.022-.013l-17.645-8.475c-1.035 1.509-2.352 2.876-3.888 4.061l14.56 6.993L52.02 48.118c1.176-8.104.342-15.626-.372-19.852 8.307-2.309 15.473-9.09 16.358-17.743-11.524-.822-15.164 1.573-18.078 12.38C49.928 1.29 29.9.235 29.9.235c-4.197 14.569 2.963 23.786 14.307 27.782 0 0 .858.21 2.031.373.715 3.945 1.807 12.406.131 21.087L18.243 33.88l15.205-7.303c-1.493-1.211-2.757-2.604-3.742-4.13L11.27 31.301c-.006.002-.011.007-.018.01-.102.05-.201.107-.297.169l-.047.033c-.08.057-.157.117-.231.182l-.051.044a2.618 2.618 0 00-.237.245l-.02.026a2.618 2.618 0 00-.228.324c-.017.027-.035.052-.05.08-.026.049-.049.1-.073.149l-.034.07a2.682 2.682 0 00-.115.313l-.015.057c-.026.095-.046.19-.062.285l-.01.071c-.015.114-.024.23-.024.345v43.915c0 .972.527 1.865 1.375 2.337l35.542 19.709.006.003c.092.052.188.097.288.137l.055.021a3.572 3.572 0 00.323.099c.076.019.154.033.233.045l.079.012c.103.012.205.02.311.02.106 0 .209-.008.311-.02l.079-.012a2.545 2.545 0 00.557-.144l.055-.021c.1-.04.196-.085.289-.137l.006-.003 35.542-19.709a2.673 2.673 0 001.376-2.337V46.945c-.002-.007-.002-.014-.002-.022zm-71.084-8.677l30.199 16.747v7.138L15.099 45.384v-7.138zm35.542 16.746l30.198-16.747v7.138L50.641 62.13v-7.138zm-35.542-3.5L45.298 68.24v24.553L15.099 76.047V51.492zm35.542 41.301V68.24l30.198-16.748v24.555L50.641 92.793z"></path><path d="M45.4 40.574c-2.667-10.629-12.136-8.123-12.136-8.123s.001 8.752 12.136 8.123z"></path></g><!----></svg>