<svg data-v-423bf9ae="" xmlns="http://www.w3.org/2000/svg" viewBox="0 0 1084.5715773977754 163" class="iconAbove"><!----><!----><!----><g data-v-423bf9ae="" id="23e73f15-dfa8-4951-b897-1d0425910a92" fill="white" transform="matrix(6.430868219789529,0,0,6.430868219789529,-2.5666863377911113,80.87780961808667)"><path d="M5.04 3.52Q3.38 3.53 2.38 4.36Q1.38 5.20 0.91 6.06Q0.44 6.93 0.40 8.31Q0.37 9.68 1.36 11.08Q2.36 12.48 3.81 12.69Q5.26 12.91 6.50 12.12Q7.73 11.34 8.36 10.33Q9.00 9.32 9.02 7.70Q9.04 6.08 7.88 4.79Q6.71 3.51 5.04 3.52ZM4.69 4.56Q6.40 4.94 7.16 6.78Q7.92 8.61 7.68 9.81Q7.44 11.00 6.73 11.49Q6.02 11.98 4.78 11.66Q3.53 11.35 2.74 10.37Q1.94 9.39 1.70 7.89Q1.46 6.39 2.21 5.28Q2.97 4.17 4.69 4.56ZM11.09 3.62L11.09 3.62L10.08 4.55L10.08 12.71L11.50 12.33L11.51 8.93Q11.95 8.83 12.52 9.09Q13.09 9.36 13.83 10.73Q14.57 12.11 15.49 12.74L15.49 12.74L16.50 11.62Q15.89 11.38 15.20 10.16Q14.51 8.94 14.00 8.46Q13.48 7.97 13.27 8.04L13.27 8.04Q14.25 7.64 14.78 6.90Q15.32 6.17 15.00 5.19Q14.69 4.20 13.75 3.85Q12.81 3.49 11.09 3.62ZM11.50 8.38L11.50 4.79Q12.53 4.57 13.19 4.95Q13.86 5.33 13.87 6.21Q13.88 7.09 13.42 7.50Q12.95 7.90 11.50 8.38L11.50 8.38ZM17.79 3.67L16.80 4.48L16.80 12.71L21.53 12.70L22.45 11.15Q21.44 11.64 18.05 11.47L18.05 11.47L18.05 8.38L20.42 8.38L21.15 7.25L18.09 7.25L18.09 4.79L21.25 4.79L22.10 3.66L17.79 3.67ZM27.10 8.61L29.22 5.17L29.22 12.70L30.48 12.39L30.48 3.61L29.23 4.09L26.81 8.09L24.10 3.53L22.91 4.07L22.92 12.70L24.07 12.33L24.07 5.93L26.27 9.54L27.28 8.93L27.10 8.61ZM36.59 12.70L37.93 12.19L37.93 3.55L36.53 4.09L36.53 10.27Q36.03 11.79 34.41 11.74Q32.80 11.69 32.72 9.57L32.72 9.57L32.72 3.58L31.36 4.23L31.36 9.87Q31.31 11.16 32.03 11.98Q32.75 12.80 34.13 12.68Q35.51 12.56 36.59 11.07L36.59 11.07L36.59 12.70ZM39.02 3.65L38.28 4.88L41.99 4.87L41.17 5.27L41.17 12.71L42.40 12.33L42.40 4.88L44.67 4.87L45.45 3.65L39.02 3.65ZM53.54 3.58Q52.32 3.55 51.47 3.94Q50.63 4.33 49.78 5.43Q48.92 6.53 48.70 7.80Q48.47 9.07 48.88 10.00Q49.29 10.93 50.02 11.61Q50.74 12.28 51.79 12.57Q52.83 12.86 53.82 12.54Q54.81 12.22 56.24 10.55L56.24 10.55L56.10 10.48Q54.48 11.93 52.58 11.27Q50.68 10.62 50.07 8.85Q49.46 7.08 50.22 5.91Q50.98 4.74 52.22 4.72Q53.45 4.70 53.90 5.17Q54.36 5.63 54.47 5.95L54.47 5.95L55.92 5.18Q55.87 4.72 55.32 4.16Q54.76 3.60 53.54 3.58ZM58.26 3.44L56.99 3.95L56.99 12.73L58.32 12.17L58.32 8.05Q58.96 7.22 59.95 7.44Q60.94 7.66 60.89 8.69L60.89 8.69L60.89 12.77L62.19 12.24L62.19 8.32Q62.13 6.56 60.70 6.47Q59.27 6.38 58.26 7.73L58.26 7.73L58.26 3.44ZM66.24 6.43Q65.32 6.36 64.31 6.88Q63.29 7.40 63.42 8.65L63.42 8.65L64.98 7.95Q64.87 7.10 65.61 6.96Q66.36 6.82 66.77 7.21Q67.19 7.61 67.13 8.80L67.13 8.80Q66.67 8.50 66.05 8.42Q65.43 8.33 64.42 8.85Q63.41 9.37 63.16 10.38Q62.91 11.38 63.69 12.06Q64.46 12.73 65.19 12.70Q65.91 12.67 66.27 12.39Q66.64 12.10 67.15 11.57L67.15 11.57Q67.14 12.44 67.35 12.76L67.35 12.76L68.70 12.04Q68.36 11.63 68.43 11.02L68.43 11.02L68.43 8.16Q68.46 7.49 67.81 6.99Q67.16 6.50 66.24 6.43ZM67.18 9.32L67.16 9.68L67.16 11.18Q66.00 12.11 65.05 11.55Q64.11 10.99 63.98 10.16Q63.85 9.34 64.80 9.31Q65.75 9.28 66.55 10.00L66.55 10.00L67.18 9.32ZM71.01 6.35L69.67 6.93L69.67 12.73L71.04 12.13L71.04 8.05Q71.55 7.42 72.31 7.48Q73.07 7.53 73.16 8.55L73.16 8.55L73.16 12.70L74.51 12.11L74.51 8.11Q75.05 7.36 75.82 7.50Q76.59 7.64 76.56 9.03L76.56 9.03L76.56 12.70L77.93 12.08L77.93 7.99Q77.76 6.51 76.45 6.53Q75.15 6.56 74.42 7.73L74.42 7.73Q74.14 6.56 72.98 6.54Q71.83 6.51 71.00 7.73L71.00 7.73L71.01 6.35ZM80.39 3.55L79.05 4.13L79.06 12.45Q80.27 12.74 81.12 12.70Q81.97 12.67 82.96 11.83Q83.95 10.99 84.26 10.06Q84.57 9.13 84.18 7.96Q83.79 6.79 82.59 6.51Q81.39 6.23 80.38 7.79L80.38 7.79L80.39 3.55ZM81.82 7.64Q82.58 7.69 83.07 8.65Q83.56 9.62 83.30 10.47Q83.04 11.31 82.31 11.51Q81.59 11.71 80.37 11.20L80.37 11.20L80.38 8.29Q81.07 7.59 81.82 7.64ZM88.36 6.51Q87.27 6.35 86.33 7.19Q85.39 8.03 85.13 9.15Q84.87 10.27 85.22 11.09Q85.57 11.91 86.15 12.28Q86.73 12.66 87.52 12.71Q88.31 12.76 89.08 12.08Q89.85 11.41 90.31 10.54L90.31 10.54L90.21 10.47Q89.16 11.57 88.08 11.52Q87.01 11.47 86.67 10.85L86.67 10.85L88.61 9.78Q90.06 8.81 89.75 7.75Q89.44 6.68 88.36 6.51ZM86.14 8.16Q86.38 7.66 86.99 7.40Q87.60 7.14 88.15 7.68Q88.70 8.21 88.53 8.90Q88.36 9.60 86.45 10.57L86.45 10.57Q86.15 10.04 86.02 9.35Q85.90 8.67 86.14 8.16ZM92.31 6.51L91.04 7.03L91.04 12.73L92.37 12.12L92.37 8.05Q93.01 7.22 93.60 7.37Q94.19 7.53 94.26 8.26L94.26 8.26L95.49 7.46Q95.35 6.62 94.34 6.50Q93.32 6.38 92.31 7.73L92.31 7.73L92.31 6.51ZM102.54 6.48Q101.42 6.51 100.72 7.03Q100.01 7.55 99.69 8.19Q99.37 8.84 99.34 9.76Q99.32 10.68 100.01 11.62Q100.70 12.56 101.71 12.71Q102.72 12.85 103.57 12.33Q104.43 11.80 104.87 11.12Q105.31 10.45 105.32 9.35Q105.34 8.26 104.50 7.36Q103.65 6.46 102.54 6.48ZM102.24 7.44Q103.28 7.82 103.71 8.91Q104.14 9.99 104.08 10.67Q104.03 11.34 103.46 11.71Q102.89 12.08 101.94 11.56Q100.99 11.05 100.69 9.91Q100.39 8.77 100.79 7.92Q101.20 7.07 102.24 7.44ZM106.78 5.29L106.78 5.29L106.79 7.05L105.67 8.11L106.91 8.11L106.92 12.76L108.16 12.23L108.17 8.09L108.90 8.09L110.71 6.99L108.13 6.99L108.13 5.22Q108.08 4.33 108.52 4.42Q108.95 4.51 109.15 5.26L109.15 5.26L110.22 4.40Q110.39 3.68 109.09 3.58Q107.79 3.47 106.78 5.29ZM118.71 3.58Q117.48 3.55 116.64 3.94Q115.79 4.33 114.94 5.43Q114.09 6.53 113.86 7.80Q113.63 9.07 114.04 10.00Q114.45 10.93 115.18 11.61Q115.91 12.28 116.96 12.57Q118.00 12.86 118.99 12.54Q119.98 12.22 121.41 10.55L121.41 10.55L121.26 10.48Q119.65 11.93 117.75 11.27Q115.85 10.62 115.24 8.85Q114.63 7.08 115.39 5.91Q116.15 4.74 117.38 4.72Q118.62 4.70 119.07 5.17Q119.53 5.63 119.64 5.95L119.64 5.95L121.09 5.18Q121.04 4.72 120.48 4.16Q119.93 3.60 118.71 3.58ZM124.50 6.48Q123.39 6.51 122.68 7.03Q121.97 7.55 121.65 8.19Q121.33 8.84 121.31 9.76Q121.28 10.68 121.97 11.62Q122.66 12.56 123.67 12.71Q124.68 12.85 125.54 12.33Q126.40 11.80 126.83 11.12Q127.27 10.45 127.29 9.35Q127.31 8.26 126.46 7.36Q125.62 6.46 124.50 6.48ZM124.21 7.44Q125.25 7.82 125.68 8.91Q126.10 9.99 126.05 10.67Q125.99 11.34 125.42 11.71Q124.85 12.08 123.90 11.56Q122.96 11.05 122.65 9.91Q122.35 8.77 122.76 7.92Q123.16 7.07 124.21 7.44ZM129.68 6.35L128.34 6.93L128.34 12.73L129.71 12.13L129.71 8.05Q130.22 7.42 130.98 7.48Q131.74 7.53 131.82 8.55L131.82 8.55L131.82 12.70L133.18 12.11L133.18 8.11Q133.72 7.36 134.49 7.50Q135.26 7.64 135.22 9.03L135.22 9.03L135.22 12.70L136.60 12.08L136.60 7.99Q136.42 6.51 135.12 6.53Q133.81 6.56 133.08 7.73L133.08 7.73Q132.80 6.56 131.65 6.54Q130.49 6.51 129.67 7.73L129.67 7.73L129.68 6.35ZM139.22 6.35L137.88 6.93L137.88 12.73L139.25 12.13L139.25 8.05Q139.76 7.42 140.52 7.48Q141.28 7.53 141.37 8.55L141.37 8.55L141.37 12.70L142.72 12.11L142.72 8.11Q143.26 7.36 144.03 7.50Q144.80 7.64 144.76 9.03L144.76 9.03L144.76 12.70L146.14 12.08L146.14 7.99Q145.97 6.51 144.66 6.53Q143.36 6.56 142.63 7.73L142.63 7.73Q142.34 6.56 141.19 6.54Q140.03 6.51 139.21 7.73L139.21 7.73L139.22 6.35ZM150.44 6.51Q149.35 6.35 148.41 7.19Q147.47 8.03 147.21 9.15Q146.95 10.27 147.29 11.09Q147.64 11.91 148.22 12.28Q148.80 12.66 149.60 12.71Q150.39 12.76 151.16 12.08Q151.93 11.41 152.39 10.54L152.39 10.54L152.29 10.47Q151.24 11.57 150.16 11.52Q149.08 11.47 148.74 10.85L148.74 10.85L150.68 9.78Q152.13 8.81 151.83 7.75Q151.52 6.68 150.44 6.51ZM148.22 8.16Q148.46 7.66 149.07 7.40Q149.68 7.14 150.23 7.68Q150.77 8.21 150.61 8.90Q150.44 9.60 148.53 10.57L148.53 10.57Q148.22 10.04 148.10 9.35Q147.98 8.67 148.22 8.16ZM154.39 6.51L153.12 7.03L153.12 12.73L154.44 12.12L154.44 8.05Q155.09 7.22 155.67 7.37Q156.26 7.53 156.34 8.26L156.34 8.26L157.57 7.46Q157.43 6.62 156.42 6.50Q155.40 6.38 154.38 7.73L154.38 7.73L154.39 6.51ZM161.27 6.50Q159.92 6.27 158.99 7.11Q158.07 7.96 157.88 9.11Q157.69 10.27 158.11 11.14Q158.53 12.02 159.23 12.37Q159.93 12.73 160.65 12.74Q161.36 12.76 162.03 12.16Q162.69 11.57 163.13 10.54L163.13 10.54L163.04 10.47Q162.10 11.42 161.23 11.47Q160.36 11.52 159.81 11.17Q159.26 10.82 158.91 10.13Q158.57 9.44 158.77 8.56Q158.98 7.67 159.63 7.39Q160.28 7.12 160.88 7.45Q161.49 7.78 161.74 8.78L161.74 8.78L162.93 7.99Q162.61 6.73 161.27 6.50ZM167.10 6.51Q166.02 6.35 165.08 7.19Q164.14 8.03 163.87 9.15Q163.61 10.27 163.96 11.09Q164.31 11.91 164.89 12.28Q165.47 12.66 166.26 12.71Q167.06 12.76 167.83 12.08Q168.59 11.41 169.05 10.54L169.05 10.54L168.96 10.47Q167.90 11.57 166.83 11.52Q165.75 11.47 165.41 10.85L165.41 10.85L167.35 9.78Q168.80 8.81 168.49 7.75Q168.18 6.68 167.10 6.51ZM164.88 8.16Q165.12 7.66 165.73 7.40Q166.35 7.14 166.89 7.68Q167.44 8.21 167.27 8.90Q167.10 9.60 165.20 10.57L165.20 10.57Q164.89 10.04 164.77 9.35Q164.64 8.67 164.88 8.16Z"></path></g><!----><g data-v-423bf9ae="" id="070c76d6-8a25-4977-8d9c-d8213f58bdff" transform="matrix(2.8125,0,0,2.8125,497.57397374510765,0)" stroke="none" fill="white"><path d="M27.377 11.377L16 0 4.623 11.377 16 22.753l11.377-11.376zM16 6.026l5.35 5.35L16 16.727l-5.35-5.35L16 6.026zM27.426 14.969l-5.664 5.664V32h5.664zM10.238 20.633l-5.664-5.664V32h5.664z"></path></g><!----></svg>